<?xml version="1.0" standalone="no"?>
<svg width="210mm" height="297mm" viewBox="0 0 210 297" version="1.1" xmlns="http://www.w3.org/2000/svg" xmlns:xlink="http://www.w3.org/1999/xlink" xmlns:inkscape="http://www.inkscape.org/namespaces/inkscape">
<g id="lspectre0" inkscape:groupmode="layer" inkscape:label="Spectre 0">
	<g id="spectre0">
		<path d="m 0,0 l 0.000000,-10.000000 l -10.000000,-0.000000 l -5.000000,8.660254 l -8.660254,-5.000000 l -8.660254,5.000000 l 5.000000,8.660254 l -5.000000,8.660254 l 8.660254,5.000000 l -0.000000,10.000000 l 10.000000,0.000000 l 5.000000,-8.660254 l 5.000000,-8.660254 l -5.000000,-8.660254 z" style="fill: none; stroke: #000000; stroke-width: 0.5; stroke-linecap: round; stroke-linejpin: round;"/>
	</g>
</g>
<g id="lmystic0" inkscape:groupmode="layer" inkscape:label="Mystic 0">
	<g id="mystic0">
		<use xlink:href="#spectre0"/>
		<use xlink:href="#spectre0" transform="translate(27.320508, 7.320508) rotate(30)"/>
	</g>
</g>
<g id="lspectre1" inkscape:groupmode="layer" inkscape:label="Spectre 1">
	<g id="spectre1">
		<use xlink:href="#spectre0" transform="translate(-6.339746, 50.980762) rotate(180) scale(-1, 1)"/>
		<use xlink:href="#spectre0" transform="translate(-36.339746, 88.301270) rotate(240) scale(-1, 1)"/>
		<use xlink:href="#mystic0" transform="translate(-47.320508, 47.320508) rotate(120) scale(-1, 1)"/>
		<use xlink:href="#spectre0" transform="translate(-94.641016, 12.679492) rotate(0) scale(-1, 1)"/>
		<use xlink:href="#spectre0" transform="translate(-64.641016, -24.641016) rotate(60) scale(-1, 1)"/>
		<use xlink:href="#spectre0" transform="translate(-47.320508, -7.320508) rotate(60) scale(-1, 1)"/>
		<use xlink:href="#spectre0" transform="translate(-0.000000, 0.000000) rotate(120) scale(-1, 1)"/>
		<use xlink:href="#spectre0" transform="translate(17.320508, 44.641016) rotate(180) scale(-1, 1)"/>
	</g>
</g>
<g id="lmystic1" inkscape:groupmode="layer" inkscape:label="Mystic 1">
	<g id="mystic1">
		<use xlink:href="#spectre0" transform="translate(-6.339746, 50.980762) rotate(180) scale(-1, 1)"/>
		<use xlink:href="#spectre0" transform="translate(-36.339746, 88.301270) rotate(240) scale(-1, 1)"/>
		<use xlink:href="#mystic0" transform="translate(-47.320508, 47.320508) rotate(120) scale(-1, 1)"/>
		<use xlink:href="#spectre0" transform="translate(-94.641016, 12.679492) rotate(0) scale(-1, 1)"/>
		<use xlink:href="#spectre0" transform="translate(-64.641016, -24.641016) rotate(60) scale(-1, 1)"/>
		<use xlink:href="#spectre0" transform="translate(-47.320508, -7.320508) rotate(60) scale(-1, 1)"/>
		<use xlink:href="#spectre0" transform="translate(-0.000000, 0.000000) rotate(120) scale(-1, 1)"/>
	</g>
</g>
<g id="lspectre2" inkscape:groupmode="layer" inkscape:label="Spectre 2">
	<g id="spectre2">
		<use xlink:href="#spectre1" transform="translate(-51.961524, 126.602540) rotate(180) scale(-1, 1)"/>
		<use xlink:href="#spectre1" transform="translate(-151.243557, 233.205081) rotate(240) scale(-1, 1)"/>
		<use xlink:href="#mystic1" transform="translate(-129.282032, 69.282032) rotate(120) scale(-1, 1)"/>
		<use xlink:href="#spectre1" transform="translate(-277.583302, -14.378222) rotate(0) scale(-1, 1)"/>
		<use xlink:href="#spectre1" transform="translate(-178.301270, -120.980762) rotate(60) scale(-1, 1)"/>
		<use xlink:href="#spectre1" transform="translate(-141.961524, -32.679492) rotate(60) scale(-1, 1)"/>
		<use xlink:href="#spectre1" transform="translate(-0.000000, 0.000000) rotate(120) scale(-1, 1)"/>
		<use xlink:href="#spectre1" transform="translate(42.679492, 139.282032) rotate(180) scale(-1, 1)"/>
	</g>
</g>
<g id="lmystic2" inkscape:groupmode="layer" inkscape:label="Mystic 2">
	<g id="mystic2">
		<use xlink:href="#spectre1" transform="translate(-51.961524, 126.602540) rotate(180) scale(-1, 1)"/>
		<use xlink:href="#spectre1" transform="translate(-151.243557, 233.205081) rotate(240) scale(-1, 1)"/>
		<use xlink:href="#mystic1" transform="translate(-129.282032, 69.282032) rotate(120) scale(-1, 1)"/>
		<use xlink:href="#spectre1" transform="translate(-277.583302, -14.378222) rotate(0) scale(-1, 1)"/>
		<use xlink:href="#spectre1" transform="translate(-178.301270, -120.980762) rotate(60) scale(-1, 1)"/>
		<use xlink:href="#spectre1" transform="translate(-141.961524, -32.679492) rotate(60) scale(-1, 1)"/>
		<use xlink:href="#spectre1" transform="translate(-0.000000, 0.000000) rotate(120) scale(-1, 1)"/>
	</g>
</g>
<g id="lspectre3" inkscape:groupmode="layer" inkscape:label="Spectre 3">
	<g id="spectre3">
		<use xlink:href="#spectre2" transform="translate(-74.378222, 374.185843) rotate(180) scale(-1, 1)"/>
		<use xlink:href="#spectre2" transform="translate(-284.378222, 730.070416) rotate(240) scale(-1, 1)"/>
		<use xlink:href="#mystic2" transform="translate(-309.282032, 249.282032) rotate(120) scale(-1, 1)"/>
		<use xlink:href="#spectre2" transform="translate(-774.448637, 118.756443) rotate(0) scale(-1, 1)"/>
		<use xlink:href="#spectre2" transform="translate(-564.448637, -237.128129) rotate(60) scale(-1, 1)"/>
		<use xlink:href="#spectre2" transform="translate(-413.205081, -3.923048) rotate(60) scale(-1, 1)"/>
		<use xlink:href="#spectre2" transform="translate(-0.000000, 0.000000) rotate(120) scale(-1, 1)"/>
		<use xlink:href="#spectre2" transform="translate(203.205081, 359.807621) rotate(180) scale(-1, 1)"/>
	</g>
</g>
<g id="lmystic3" inkscape:groupmode="layer" inkscape:label="Mystic 3">
	<g id="mystic3">
		<use xlink:href="#spectre2" transform="translate(-74.378222, 374.185843) rotate(180) scale(-1, 1)"/>
		<use xlink:href="#spectre2" transform="translate(-284.378222, 730.070416) rotate(240) scale(-1, 1)"/>
		<use xlink:href="#mystic2" transform="translate(-309.282032, 249.282032) rotate(120) scale(-1, 1)"/>
		<use xlink:href="#spectre2" transform="translate(-774.448637, 118.756443) rotate(0) scale(-1, 1)"/>
		<use xlink:href="#spectre2" transform="translate(-564.448637, -237.128129) rotate(60) scale(-1, 1)"/>
		<use xlink:href="#spectre2" transform="translate(-413.205081, -3.923048) rotate(60) scale(-1, 1)"/>
		<use xlink:href="#spectre2" transform="translate(-0.000000, 0.000000) rotate(120) scale(-1, 1)"/>
	</g>
</g>
<g id="lspectre4" inkscape:groupmode="layer" inkscape:label="Spectre 4">
	<g id="spectre4">
		<use xlink:href="#spectre3" transform="translate(-415.692194, 985.499815) rotate(180) scale(-1, 1)"/>
		<use xlink:href="#spectre3" transform="translate(-1192.627944, 1848.320138) rotate(240) scale(-1, 1)"/>
		<use xlink:href="#mystic3" transform="translate(-986.935750, 506.935750) rotate(120) scale(-1, 1)"/>
		<use xlink:href="#spectre3" transform="translate(-2197.006166, -108.686028) rotate(0) scale(-1, 1)"/>
		<use xlink:href="#spectre3" transform="translate(-1420.070416, -971.506351) rotate(60) scale(-1, 1)"/>
		<use xlink:href="#spectre3" transform="translate(-1135.692194, -241.435935) rotate(60) scale(-1, 1)"/>
		<use xlink:href="#spectre3" transform="translate(-0.000000, 0.000000) rotate(120) scale(-1, 1)"/>
		<use xlink:href="#spectre3" transform="translate(358.756443, 1104.256258) rotate(180) scale(-1, 1)"/>
	</g>
</g>
</svg>
