<?xml version="1.0" encoding="UTF-8" standalone="no"?>
<svg
   width="2450mm"
   height="3120mm"
   viewBox="-1050 -1740 2450 3120"
   version="1.1"
   id="svg55"
   sodipodi:docname="spectre-clones-truchets.svg"
   inkscape:version="1.3 (0e150ed, 2023-07-21)"
   inkscape:export-filename="spectre-clones-truchets/301.png"
   inkscape:export-xdpi="38.099998"
   inkscape:export-ydpi="38.099998"
   xmlns:inkscape="http://www.inkscape.org/namespaces/inkscape"
   xmlns:sodipodi="http://sodipodi.sourceforge.net/DTD/sodipodi-0.dtd"
   xmlns:xlink="http://www.w3.org/1999/xlink"
   xmlns="http://www.w3.org/2000/svg"
   xmlns:svg="http://www.w3.org/2000/svg">
  <defs
     id="defs55" />
  <sodipodi:namedview
     id="namedview55"
     pagecolor="#ffffff"
     bordercolor="#666666"
     borderopacity="1.0"
     inkscape:showpageshadow="2"
     inkscape:pageopacity="0.0"
     inkscape:pagecheckerboard="0"
     inkscape:deskcolor="#d1d1d1"
     inkscape:document-units="mm"
     inkscape:zoom="0.070416472"
     inkscape:cx="4608.2967"
     inkscape:cy="5893.5074"
     inkscape:window-width="1736"
     inkscape:window-height="1035"
     inkscape:window-x="2171"
     inkscape:window-y="23"
     inkscape:window-maximized="0"
     inkscape:current-layer="spectre0"
     showgrid="false" />
  <g
     id="lspectre0"
     inkscape:groupmode="layer"
     inkscape:label="Spectre 0"
     style="display:none">
    <g
       id="spectre0"
       inkscape:label="spectre0"
       style="display:inline">
      <path
         d="m 0,0 v -10 h -10 l -5,8.660254 -8.660254,-5 -8.660254,5 5,8.660254 -5,8.660254 8.660254,5 v 10 h 10 l 5,-8.660254 5,-8.660254 -5,-8.660254 z"
         style="fill:none;stroke:#ffff00;stroke-width:0.5;stroke-linecap:round;stroke-linejoin:round;stroke-opacity:0.4"
         id="path1" />
      <g
         id="g22"
         inkscape:label="tru3"
         style="display:inline"
         transform="translate(-9.7916668e-6,1.2499999e-5)">
        <path
           style="display:none;fill:none;stroke:#0000ff;stroke-width:2;stroke-linecap:round;stroke-linejoin:round;stroke-dasharray:none;stroke-opacity:1"
           d="M -9.9999902,-10.000012 C -5.6549003,-8.2819993 -1.8565128,-4.3990683 9.7916668e-6,-1.2499999e-5"
           id="tru311"
           sodipodi:nodetypes="cc" />
        <path
           style="display:none;fill:none;stroke:#0000ff;stroke-width:2;stroke-linecap:round;stroke-linejoin:round;stroke-dasharray:none;stroke-opacity:1"
           d="M 9.7916668e-6,-1.2499999e-5 C -11.570388,0.07406846 -14.33509,7.2941183 -3.6602442,13.660242"
           id="tru321"
           sodipodi:nodetypes="cc" />
        <path
           style="display:inline;fill:none;stroke:#0000ff;stroke-width:2;stroke-linecap:round;stroke-linejoin:round;stroke-dasharray:none;stroke-opacity:1"
           d="M -3.6602442,13.660242 C -10.056105,15.643134 -13.728445,24.275192 -13.660244,30.98075"
           id="tru331"
           sodipodi:nodetypes="cc" />
        <path
           style="display:none;fill:none;stroke:#0000ff;stroke-width:2;stroke-linecap:round;stroke-linejoin:round;stroke-dasharray:none;stroke-opacity:1"
           d="m -13.660244,30.98075 c -4.042608,-1.789743 -7.754679,-6.159963 -10,-10"
           id="tru341"
           sodipodi:nodetypes="cc" />
        <path
           style="display:inline;fill:none;stroke:#0000ff;stroke-width:2;stroke-linecap:round;stroke-linejoin:round;stroke-dasharray:none;stroke-opacity:1"
           d="M -23.660244,20.98075 C -25.934889,17.12794 -27.32812,12.043969 -27.320498,7.3204955"
           id="tru351"
           sodipodi:nodetypes="cc" />
        <path
           style="display:none;fill:none;stroke:#0000ff;stroke-width:2;stroke-linecap:round;stroke-linejoin:round;stroke-dasharray:none;stroke-opacity:1"
           d="m -27.320498,7.3204955 c -0.09082,-4.1741548 1.398522,-9.8437529 3.660254,-13.660254"
           id="tru361"
           sodipodi:nodetypes="cc" />
        <path
           style="display:none;fill:none;stroke:#0000ff;stroke-width:2;stroke-linecap:round;stroke-linejoin:round;stroke-dasharray:none;stroke-opacity:1"
           d="m -23.660244,-6.3397585 c 6.027778,10.2923986 13.564065,7.852462 13.6602538,-3.6602535"
           id="tru371"
           sodipodi:nodetypes="cc" />
        <path
           style="display:none;fill:none;stroke:#0000ff;stroke-width:2;stroke-linecap:round;stroke-linejoin:round;stroke-dasharray:none;stroke-opacity:1"
           d="m -9.9999902,-10.000012 c 5.8487104,6.3686387 -10.5227638,17.2198026 6.339746,23.660254"
           id="tru312"
           sodipodi:nodetypes="cc" />
        <path
           style="display:none;fill:none;stroke:#0000ff;stroke-width:2;stroke-linecap:round;stroke-linejoin:round;stroke-dasharray:none;stroke-opacity:1"
           d="M 9.7916668e-6,-1.2499999e-5 C -17.092684,-2.0931103 -15.169848,21.935655 -13.660244,30.98075"
           id="tru322"
           sodipodi:nodetypes="cc" />
        <path
           style="display:none;fill:none;stroke:#0000ff;stroke-width:2;stroke-linecap:round;stroke-linejoin:round;stroke-dasharray:none;stroke-opacity:1"
           d="M -3.6602442,13.660242 C -13.642183,15.172268 -15.431313,23.323879 -23.660244,20.98075"
           id="tru332"
           sodipodi:nodetypes="cc" />
        <path
           style="display:none;fill:none;stroke:#0000ff;stroke-width:2;stroke-linecap:round;stroke-linejoin:round;stroke-dasharray:none;stroke-opacity:1"
           d="M -13.660244,30.98075 C -16.871189,27.60273 -18.984498,17.744416 -27.320529,7.3590734"
           id="tru342"
           sodipodi:nodetypes="cc" />
        <path
           style="display:none;fill:none;stroke:#0000ff;stroke-width:2;stroke-linecap:round;stroke-linejoin:round;stroke-dasharray:none;stroke-opacity:1"
           d="m -23.660244,20.98075 c 3.501406,-15.1762813 -3.144087,-18.3157568 0,-27.3205085"
           id="tru352"
           sodipodi:nodetypes="cc" />
        <path
           style="display:none;fill:none;stroke:#0000ff;stroke-width:2;stroke-linecap:round;stroke-linejoin:round;stroke-dasharray:none;stroke-opacity:1"
           d="M -27.320529,7.3590734 C -24.361525,3.911209 -7.891043,2.1224946 -9.9999902,-10.000012"
           id="tru362"
           sodipodi:nodetypes="cc" />
        <path
           style="display:inline;fill:none;stroke:#0000ff;stroke-width:2;stroke-linecap:round;stroke-linejoin:round;stroke-dasharray:none;stroke-opacity:1"
           d="M -23.660244,-6.3397585 C -17.231445,9.3653533 -4.753444,-5.1336066 9.7916668e-6,-1.2499999e-5"
           id="tru372"
           sodipodi:nodetypes="cc" />
        <path
           style="display:none;fill:none;stroke:#0000ff;stroke-width:2;stroke-linecap:round;stroke-linejoin:round;stroke-dasharray:none;stroke-opacity:1"
           d="M -9.9999902,-10.000012 C -7.9911705,-6.5206342 -11.237353,-2.1215519 -12.973206,0.74540465 -18.080769,9.1811179 -16.991878,21.268607 -13.660244,30.98075"
           id="tru313"
           sodipodi:nodetypes="csc" />
        <path
           style="display:none;fill:none;stroke:#0000ff;stroke-width:2;stroke-linecap:round;stroke-linejoin:round;stroke-dasharray:none;stroke-opacity:1"
           d="M 9.7916668e-6,-1.2499999e-5 C -11.924905,-3.1716414 -17.896343,17.753665 -23.660244,20.98075"
           id="tru323"
           sodipodi:nodetypes="cc" />
        <path
           style="display:none;fill:none;stroke:#0000ff;stroke-width:2;stroke-linecap:round;stroke-linejoin:round;stroke-dasharray:none;stroke-opacity:1"
           d="M -3.6602442,13.660242 C -11.993635,14.146229 -21.494213,8.2862591 -27.320529,7.3590734"
           id="tru333"
           sodipodi:nodetypes="cc" />
        <path
           style="display:none;fill:none;stroke:#0000ff;stroke-width:2;stroke-linecap:round;stroke-linejoin:round;stroke-dasharray:none;stroke-opacity:1"
           d="m -13.660244,30.98075 c -4.524806,-7.879718 -10.570622,-29.4672832 -10,-37.3205085"
           id="tru343"
           sodipodi:nodetypes="cc" />
        <path
           style="display:none;fill:none;stroke:#0000ff;stroke-width:2;stroke-linecap:round;stroke-linejoin:round;stroke-dasharray:none;stroke-opacity:1"
           d="M -23.660244,20.98075 C -20.090011,17.410517 -19.449349,6.8861618 -13.339874,0.60061997 -9.6478579,-3.197794 -8.8286984,-6.8602732 -9.9999902,-10.000012"
           id="tru353"
           sodipodi:nodetypes="csc" />
        <path
           style="display:none;fill:none;stroke:#0000ff;stroke-width:2;stroke-linecap:round;stroke-linejoin:round;stroke-dasharray:none;stroke-opacity:1"
           d="M -27.320529,7.3590734 C -20.195667,6.6194306 -15.108263,5.6830113 -11.074964,3.0060095 -8.5681353,1.342164 -4.6507751,-1.8524724 9.7916668e-6,-1.2499999e-5"
           id="tru363"
           sodipodi:nodetypes="csc" />
        <path
           style="display:none;fill:none;stroke:#0000ff;stroke-width:2;stroke-linecap:round;stroke-linejoin:round;stroke-dasharray:none;stroke-opacity:1"
           d="m -23.660244,-6.3397585 c 0.986432,7.8250575 11.61939,19.2928055 19.9999998,20.0000005"
           id="tru373"
           sodipodi:nodetypes="cc" />
      </g>
    </g>
    <g
       id="g1"
       inkscape:label="tru4"
       style="display:none"
       transform="translate(-9.7916668e-6,1.2499999e-5)">
      <path
         style="display:inline;fill:none;stroke:#0000ff;stroke-width:2;stroke-linecap:round;stroke-linejoin:round;stroke-dasharray:none;stroke-opacity:1"
         d="M 0,-10 C -4.0906989,-4.4277041 -8.1169402,0.96455579 -8.660254,5"
         id="tru411"
         sodipodi:nodetypes="cc" />
      <path
         style="display:inline;fill:none;stroke:#0000ff;stroke-width:2;stroke-linecap:round;stroke-linejoin:round;stroke-dasharray:none;stroke-opacity:1"
         d="m -8.660254,5 c -0.9529396,3.4193075 -1.0027776,11.463441 0,17.320508"
         id="tru421"
         sodipodi:nodetypes="cc" />
      <path
         style="display:inline;fill:none;stroke:#0000ff;stroke-width:2;stroke-linecap:round;stroke-linejoin:round;stroke-dasharray:none;stroke-opacity:1"
         d="m -8.660254,22.320508 c -6.032249,0.01939 -8.741359,5.299922 -15,8.660253"
         id="tru431"
         sodipodi:nodetypes="cc" />
      <path
         style="display:inline;fill:none;stroke:#0000ff;stroke-width:2;stroke-linecap:round;stroke-linejoin:round;stroke-dasharray:none;stroke-opacity:1"
         d="m -23.660254,30.980761 c 3.665958,-12.625368 3.620748,-12.614408 -8.660253,-14.999999"
         id="tru441"
         sodipodi:nodetypes="cc" />
      <path
         style="display:inline;fill:none;stroke:#0000ff;stroke-width:2;stroke-linecap:round;stroke-linejoin:round;stroke-dasharray:none;stroke-opacity:1"
         d="m -32.320507,15.980762 c 9.070037,-8.652482 9.082668,-8.5973067 0,-17.320508"
         id="tru451"
         sodipodi:nodetypes="cc" />
      <path
         style="display:inline;fill:none;stroke:#0000ff;stroke-width:2;stroke-linecap:round;stroke-linejoin:round;stroke-dasharray:none;stroke-opacity:1"
         d="m -32.320507,-1.339746 c 7.617742,1.06185191 14.113385,1.19849774 17.320507,0"
         id="tru461"
         sodipodi:nodetypes="cc" />
      <path
         style="display:inline;fill:none;stroke:#0000ff;stroke-width:2;stroke-linecap:round;stroke-linejoin:round;stroke-dasharray:none;stroke-opacity:1"
         d="M -15,-1.339746 C -10.644835,-1.6648055 -5.6230851,-6.2685718 0,-10"
         id="tru471"
         sodipodi:nodetypes="cc" />
      <path
         style="display:inline;fill:none;stroke:#0000ff;stroke-width:2;stroke-linecap:round;stroke-linejoin:round;stroke-dasharray:none;stroke-opacity:1"
         d="M 0,-10 C -14.949872,4.949872 -15.777973,2.9354849 -8.660254,22.320508"
         id="tru412"
         sodipodi:nodetypes="cc" />
      <path
         style="display:inline;fill:none;stroke:#0000ff;stroke-width:2;stroke-linecap:round;stroke-linejoin:round;stroke-dasharray:none;stroke-opacity:1"
         d="m -8.660254,5 c -4.869973,9.425882 -8.412247,19.706948 -15,25.980761"
         id="tru422"
         sodipodi:nodetypes="cc" />
      <path
         style="display:inline;fill:none;stroke:#0000ff;stroke-width:2;stroke-linecap:round;stroke-linejoin:round;stroke-dasharray:none;stroke-opacity:1"
         d="M -8.660254,22.320508 C -20.023917,15.83308 -22.63713,15.851332 -32.320507,15.980762"
         id="tru432"
         sodipodi:nodetypes="cc" />
      <path
         style="display:inline;fill:none;stroke:#0000ff;stroke-width:2;stroke-linecap:round;stroke-linejoin:round;stroke-dasharray:none;stroke-opacity:1"
         d="m -23.660254,30.980761 c 6.435546,-15.636586 3.636576,-25.1046702 -8.660253,-32.320507"
         id="tru442"
         sodipodi:nodetypes="cc" />
      <path
         style="display:inline;fill:none;stroke:#0000ff;stroke-width:2;stroke-linecap:round;stroke-linejoin:round;stroke-dasharray:none;stroke-opacity:1"
         d="M -32.320507,15.980762 C -23.414694,9.6259552 -17.082278,1.9571386 -15,-1.339746"
         id="tru452"
         sodipodi:nodetypes="cc" />
      <path
         style="display:inline;fill:none;stroke:#0000ff;stroke-width:2;stroke-linecap:round;stroke-linejoin:round;stroke-dasharray:none;stroke-opacity:1"
         d="M -32.320507,-1.339746 C -9.3628662,4.8117353 -17.889656,5.7190095 0,-10"
         id="tru462"
         sodipodi:nodetypes="cc" />
      <path
         style="display:inline;fill:none;stroke:#0000ff;stroke-width:2;stroke-linecap:round;stroke-linejoin:round;stroke-dasharray:none;stroke-opacity:1"
         d="M -15,-1.339746 C -13.661763,1.1299043 -10.941149,3.7206886 -8.660254,5"
         id="tru472"
         sodipodi:nodetypes="cc" />
      <path
         style="display:inline;fill:none;stroke:#0000ff;stroke-width:2;stroke-linecap:round;stroke-linejoin:round;stroke-dasharray:none;stroke-opacity:1"
         d="M 0,-10 C -19.44305,8.8903988 -10.624384,9.6577721 -23.660254,30.980761"
         id="tru413"
         sodipodi:nodetypes="cc" />
      <path
         style="display:inline;fill:none;stroke:#0000ff;stroke-width:2;stroke-linecap:round;stroke-linejoin:round;stroke-dasharray:none;stroke-opacity:1"
         d="m -8.660254,5 c -7.392417,5.884757 -13.169401,8.262733 -23.660253,10.980762"
         id="tru423"
         sodipodi:nodetypes="cc" />
      <path
         style="display:inline;fill:none;stroke:#0000ff;stroke-width:2;stroke-linecap:round;stroke-linejoin:round;stroke-dasharray:none;stroke-opacity:1"
         d="M -8.660254,22.320508 C -18.011757,13.716205 -20.021905,4.023501 -32.320507,-1.339746"
         id="tru433"
         sodipodi:nodetypes="cc" />
      <path
         style="display:inline;fill:none;stroke:#0000ff;stroke-width:2;stroke-linecap:round;stroke-linejoin:round;stroke-dasharray:none;stroke-opacity:1"
         d="M -23.660254,30.980761 C -16.913101,17.137813 -16.588734,4.4045321 -15,-1.339746"
         id="tru443"
         sodipodi:nodetypes="cc" />
      <path
         style="display:inline;fill:none;stroke:#0000ff;stroke-width:2;stroke-linecap:round;stroke-linejoin:round;stroke-dasharray:none;stroke-opacity:1"
         d="M -32.320507,15.980762 C -19.598174,9.2770664 -15.159386,4.0758964 0,-10"
         id="tru453"
         sodipodi:nodetypes="cc" />
      <path
         style="display:inline;fill:none;stroke:#0000ff;stroke-width:2;stroke-linecap:round;stroke-linejoin:round;stroke-dasharray:none;stroke-opacity:1"
         d="M -32.320507,-1.339746 C -21.384818,2.4469991 -14.014544,5.2141957 -8.660254,5"
         id="tru463"
         sodipodi:nodetypes="cc" />
      <path
         style="display:inline;fill:none;stroke:#0000ff;stroke-width:2;stroke-linecap:round;stroke-linejoin:round;stroke-dasharray:none;stroke-opacity:1"
         d="m -15,-1.339746 c -0.104403,10.1521716 2.031586,16.771662 6.339746,23.660254"
         id="tru473"
         sodipodi:nodetypes="cc" />
    </g>
  </g>
  <g
     id="lmystic0"
     inkscape:groupmode="layer"
     inkscape:label="Mystic 0"
     style="display:none">
    <g
       id="mystic0">
      <use
         xlink:href="#spectre0"
         id="use1"
         x="0"
         y="0" />
      <use
         xlink:href="#spectre0"
         transform="rotate(30,1.0339273e-7,54.641016)"
         id="use2"
         x="0"
         y="0" />
    </g>
  </g>
  <g
     id="lspectre1"
     inkscape:groupmode="layer"
     inkscape:label="Spectre 1"
     style="display:none">
    <g
       id="spectre1">
      <use
         xlink:href="#spectre0"
         transform="matrix(1,0,0,-1,-6.339746,50.980762)"
         id="use3"
         x="0"
         y="0" />
      <use
         xlink:href="#spectre0"
         transform="matrix(0.5,0.8660254,0.8660254,-0.5,-36.339746,88.30127)"
         id="use4"
         x="0"
         y="0" />
      <use
         xlink:href="#mystic0"
         transform="matrix(0.5,-0.8660254,-0.8660254,-0.5,-47.320508,47.320508)"
         id="use5" />
      <use
         xlink:href="#spectre0"
         transform="matrix(-1,0,0,1,-94.641016,12.679492)"
         id="use6"
         x="0"
         y="0" />
      <use
         xlink:href="#spectre0"
         transform="matrix(-0.5,-0.8660254,-0.8660254,0.5,-64.641016,-24.641016)"
         id="use7"
         x="0"
         y="0" />
      <use
         xlink:href="#spectre0"
         transform="matrix(-0.5,-0.8660254,-0.8660254,0.5,-47.320508,-7.320508)"
         id="use8"
         x="0"
         y="0" />
      <use
         xlink:href="#spectre0"
         transform="matrix(0.5,-0.8660254,-0.8660254,-0.5,0,0)"
         id="use9"
         x="0"
         y="0" />
      <use
         xlink:href="#spectre0"
         transform="matrix(1,0,0,-1,17.320508,44.641016)"
         id="use10"
         x="0"
         y="0" />
    </g>
  </g>
  <g
     id="lmystic1"
     inkscape:groupmode="layer"
     inkscape:label="Mystic 1"
     style="display:none">
    <g
       id="mystic1">
      <use
         xlink:href="#spectre0"
         transform="matrix(1,0,0,-1,-6.339746,50.980762)"
         id="use11"
         x="0"
         y="0" />
      <use
         xlink:href="#spectre0"
         transform="matrix(0.5,0.8660254,0.8660254,-0.5,-36.339746,88.30127)"
         id="use12"
         x="0"
         y="0" />
      <use
         xlink:href="#mystic0"
         transform="matrix(0.5,-0.8660254,-0.8660254,-0.5,-47.320508,47.320508)"
         id="use13" />
      <use
         xlink:href="#spectre0"
         transform="matrix(-1,0,0,1,-94.641016,12.679492)"
         id="use14"
         x="0"
         y="0" />
      <use
         xlink:href="#spectre0"
         transform="matrix(-0.5,-0.8660254,-0.8660254,0.5,-64.641016,-24.641016)"
         id="use15"
         x="0"
         y="0" />
      <use
         xlink:href="#spectre0"
         transform="matrix(-0.5,-0.8660254,-0.8660254,0.5,-47.320508,-7.320508)"
         id="use16"
         x="0"
         y="0" />
      <use
         xlink:href="#spectre0"
         transform="matrix(0.5,-0.8660254,-0.8660254,-0.5,0,0)"
         id="use17"
         x="0"
         y="0" />
    </g>
  </g>
  <g
     id="lspectre2"
     inkscape:groupmode="layer"
     inkscape:label="Spectre 2"
     style="display:none">
    <g
       id="spectre2">
      <use
         xlink:href="#spectre1"
         transform="matrix(1,0,0,-1,-51.961524,126.60254)"
         id="use18" />
      <use
         xlink:href="#spectre1"
         transform="matrix(0.5,0.8660254,0.8660254,-0.5,-151.24356,233.20508)"
         id="use19" />
      <use
         xlink:href="#mystic1"
         transform="matrix(0.5,-0.8660254,-0.8660254,-0.5,-129.28203,69.282032)"
         id="use20" />
      <use
         xlink:href="#spectre1"
         transform="matrix(-1,0,0,1,-277.5833,-14.378222)"
         id="use21" />
      <use
         xlink:href="#spectre1"
         transform="matrix(-0.5,-0.8660254,-0.8660254,0.5,-178.30127,-120.98076)"
         id="use22" />
      <use
         xlink:href="#spectre1"
         transform="matrix(-0.5,-0.8660254,-0.8660254,0.5,-141.96152,-32.679492)"
         id="use23" />
      <use
         xlink:href="#spectre1"
         transform="matrix(0.5,-0.8660254,-0.8660254,-0.5,0,0)"
         id="use24" />
      <use
         xlink:href="#spectre1"
         transform="matrix(1,0,0,-1,42.679492,139.28203)"
         id="use25" />
    </g>
  </g>
  <g
     id="lmystic2"
     inkscape:groupmode="layer"
     inkscape:label="Mystic 2"
     style="display:none">
    <g
       id="mystic2">
      <use
         xlink:href="#spectre1"
         transform="matrix(1,0,0,-1,-51.961524,126.60254)"
         id="use26" />
      <use
         xlink:href="#spectre1"
         transform="matrix(0.5,0.8660254,0.8660254,-0.5,-151.24356,233.20508)"
         id="use27" />
      <use
         xlink:href="#mystic1"
         transform="matrix(0.5,-0.8660254,-0.8660254,-0.5,-129.28203,69.282032)"
         id="use28" />
      <use
         xlink:href="#spectre1"
         transform="matrix(-1,0,0,1,-277.5833,-14.378222)"
         id="use29" />
      <use
         xlink:href="#spectre1"
         transform="matrix(-0.5,-0.8660254,-0.8660254,0.5,-178.30127,-120.98076)"
         id="use30" />
      <use
         xlink:href="#spectre1"
         transform="matrix(-0.5,-0.8660254,-0.8660254,0.5,-141.96152,-32.679492)"
         id="use31" />
      <use
         xlink:href="#spectre1"
         transform="matrix(0.5,-0.8660254,-0.8660254,-0.5,0,0)"
         id="use32" />
    </g>
  </g>
  <g
     id="lspectre3"
     inkscape:groupmode="layer"
     inkscape:label="Spectre 3"
     style="display:none">
    <g
       id="spectre3">
      <use
         xlink:href="#spectre2"
         transform="matrix(1,0,0,-1,-74.378222,374.18584)"
         id="use33" />
      <use
         xlink:href="#spectre2"
         transform="matrix(0.5,0.8660254,0.8660254,-0.5,-284.37822,730.07042)"
         id="use34" />
      <use
         xlink:href="#mystic2"
         transform="matrix(0.5,-0.8660254,-0.8660254,-0.5,-309.28203,249.28203)"
         id="use35" />
      <use
         xlink:href="#spectre2"
         transform="matrix(-1,0,0,1,-774.44864,118.75644)"
         id="use36" />
      <use
         xlink:href="#spectre2"
         transform="matrix(-0.5,-0.8660254,-0.8660254,0.5,-564.44864,-237.12813)"
         id="use37" />
      <use
         xlink:href="#spectre2"
         transform="matrix(-0.5,-0.8660254,-0.8660254,0.5,-413.20508,-3.923048)"
         id="use38" />
      <use
         xlink:href="#spectre2"
         transform="matrix(0.5,-0.8660254,-0.8660254,-0.5,0,0)"
         id="use39" />
      <use
         xlink:href="#spectre2"
         transform="matrix(1,0,0,-1,203.20508,359.80762)"
         id="use40" />
    </g>
  </g>
  <g
     id="lmystic3"
     inkscape:groupmode="layer"
     inkscape:label="Mystic 3"
     style="display:none">
    <g
       id="mystic3">
      <use
         xlink:href="#spectre2"
         transform="matrix(1,0,0,-1,-74.378222,374.18584)"
         id="use41" />
      <use
         xlink:href="#spectre2"
         transform="matrix(0.5,0.8660254,0.8660254,-0.5,-284.37822,730.07042)"
         id="use42" />
      <use
         xlink:href="#mystic2"
         transform="matrix(0.5,-0.8660254,-0.8660254,-0.5,-309.28203,249.28203)"
         id="use43" />
      <use
         xlink:href="#spectre2"
         transform="matrix(-1,0,0,1,-774.44864,118.75644)"
         id="use44" />
      <use
         xlink:href="#spectre2"
         transform="matrix(-0.5,-0.8660254,-0.8660254,0.5,-564.44864,-237.12813)"
         id="use45" />
      <use
         xlink:href="#spectre2"
         transform="matrix(-0.5,-0.8660254,-0.8660254,0.5,-413.20508,-3.923048)"
         id="use46" />
      <use
         xlink:href="#spectre2"
         transform="matrix(0.5,-0.8660254,-0.8660254,-0.5,0,0)"
         id="use47" />
    </g>
  </g>
  <g
     id="lspectre4"
     inkscape:groupmode="layer"
     inkscape:label="Spectre 4"
     style="display:inline">
    <g
       id="spectre4"
       transform="rotate(44.4,250.37542,1611.3588)">
      <use
         xlink:href="#spectre3"
         transform="matrix(1,0,0,-1,-415.69219,985.49981)"
         id="use48" />
      <use
         xlink:href="#spectre3"
         transform="matrix(0.5,0.8660254,0.8660254,-0.5,-1192.6279,1848.3201)"
         id="use49" />
      <use
         xlink:href="#mystic3"
         transform="matrix(0.5,-0.8660254,-0.8660254,-0.5,-986.93575,506.93575)"
         id="use50" />
      <use
         xlink:href="#spectre3"
         transform="matrix(-1,0,0,1,-2197.0062,-108.68603)"
         id="use51" />
      <use
         xlink:href="#spectre3"
         transform="matrix(-0.5,-0.8660254,-0.8660254,0.5,-1420.0704,-971.50635)"
         id="use52" />
      <use
         xlink:href="#spectre3"
         transform="matrix(-0.5,-0.8660254,-0.8660254,0.5,-1135.6922,-241.43593)"
         id="use53" />
      <use
         xlink:href="#spectre3"
         transform="matrix(0.5,-0.8660254,-0.8660254,-0.5,0,0)"
         id="use54" />
      <use
         xlink:href="#spectre3"
         transform="matrix(1,0,0,-1,358.75644,1104.2563)"
         id="use55" />
    </g>
  </g>
</svg>
